<?xml version="1.0" standalone="no"?>
<!DOCTYPE svg PUBLIC "-//W3C//DTD SVG 20010904//EN"
 "http://www.w3.org/TR/2001/REC-SVG-20010904/DTD/svg10.dtd">
<svg version="1.0" xmlns="http://www.w3.org/2000/svg"
 width="1024.000000pt" height="1024.000000pt" viewBox="0 0 1024.000000 1024.000000"
 preserveAspectRatio="xMidYMid meet">
<metadata>
Created by potrace 1.14, written by Peter Selinger 2001-2017
</metadata>
<g transform="translate(0.000000,1024.000000) scale(0.100000,-0.100000)"
fill="#000000" stroke="none">
<path d="M0 5120 l0 -5120 5120 0 5120 0 0 5120 0 5120 -5120 0 -5120 0 0
-5120z m5540 3560 c825 -101 1549 -449 2120 -1020 593 -593 954 -1366 1030
-2208 16 -172 8 -605 -15 -762 -78 -558 -264 -1056 -564 -1510 -386 -584 -958
-1055 -1603 -1320 -276 -114 -597 -200 -898 -241 -223 -30 -729 -38 -920 -15
-402 49 -838 190 -1182 382 l-67 38 -917 -238 c-504 -130 -918 -235 -921 -232
-3 3 103 407 237 898 l242 893 -21 37 c-72 126 -238 526 -306 738 -127 396
-172 692 -162 1065 10 327 42 571 114 850 330 1287 1364 2288 2665 2579 136
31 339 62 483 75 121 12 567 6 685 -9z"/>
<path d="M4893 8040 c-827 -80 -1565 -489 -2059 -1141 -294 -388 -487 -846
-559 -1326 -41 -276 -43 -632 -5 -843 62 -342 213 -755 412 -1125 51 -93 91
-177 91 -186 -1 -9 -59 -226 -128 -483 -70 -257 -125 -469 -122 -472 2 -3 231
54 507 126 277 71 510 130 518 130 9 0 74 -38 146 -84 279 -178 577 -297 915
-363 130 -26 150 -27 451 -28 333 0 426 7 652 51 507 98 1006 350 1391 702
504 461 820 1058 923 1746 22 143 29 505 15 662 -84 890 -555 1676 -1301 2166
-366 241 -772 393 -1214 453 -134 19 -505 27 -633 15z m653 -2173 c775 -390
1415 -714 1422 -721 10 -10 9 -15 -5 -28 -10 -8 -641 -345 -1403 -748 -762
-403 -1406 -744 -1433 -759 -41 -22 -49 -24 -57 -11 -12 19 -13 1319 -1 1338
5 9 165 33 501 77 270 35 497 68 503 74 7 7 7 14 2 20 -6 5 -230 32 -500 61
-269 28 -496 57 -502 62 -18 14 -19 1338 -2 1355 9 9 19 9 39 0 15 -7 661
-331 1436 -720z"/>
</g>
</svg>
